<svg version="1.1" id="Layer_1" xmlns="http://www.w3.org/2000/svg" xmlns:xlink="http://www.w3.org/1999/xlink" x="0px" y="0px"
	 width="100%" viewBox="0 0 584 522" enable-background="new 0 0 584 522" xml:space="preserve">
<path fill="#2D2D38" opacity="1.000000" stroke="none" 
	d="
M0.999994,337.000000 
	C1.000000,277.312439 1.000000,217.624878 1.338962,157.378693 
	C2.531217,155.463943 3.515000,154.171921 4.217569,152.741745 
	C11.024149,138.885880 16.993454,124.545479 24.756338,111.251152 
	C34.468540,94.618515 46.539127,79.559975 59.200005,64.952438 
	C72.792229,49.270351 88.510910,36.013084 104.756050,23.400621 
	C113.615074,16.522608 123.803139,11.368279 133.265945,5.242159 
	C134.553223,4.408785 135.106735,2.441998 136.000000,1.000001 
	C222.687561,1.000000 309.375122,1.000000 396.596497,1.347684 
	C398.507904,2.772622 399.750305,4.128895 401.288666,4.874402 
	C405.764526,7.043455 410.671783,8.467273 414.850342,11.078647 
	C429.702606,20.360430 444.616516,29.597178 458.919006,39.684734 
	C467.389069,45.658684 474.947205,52.992188 482.559814,60.095436 
	C489.455139,66.529419 496.872589,72.765144 502.277710,80.357063 
	C512.457458,94.655273 525.271667,107.064285 532.729736,123.363968 
	C538.504944,135.985657 545.901917,147.900970 551.176270,160.707535 
	C558.701050,178.978256 564.963501,197.808701 567.572876,217.529221 
	C569.442017,231.654892 571.046387,245.853775 571.830688,260.071747 
	C572.377747,269.988129 571.803650,280.035339 570.885559,289.945862 
	C569.756348,302.134399 568.632263,314.444916 565.896179,326.332245 
	C562.484192,341.156219 557.783203,355.720123 552.959229,370.169434 
	C549.863892,379.440948 546.234253,388.675995 541.606018,397.259857 
	C535.013611,409.486542 527.817444,421.470856 519.889771,432.870636 
	C512.234131,443.879333 503.785675,454.427155 494.859741,464.441406 
	C480.451874,480.605896 463.597809,494.091766 445.644012,506.147461 
	C439.230072,510.454376 432.395996,514.131226 425.885742,518.301819 
	C424.019745,519.497253 422.615784,521.414001 421.000000,523.000000 
	C328.979095,523.000000 236.958206,523.000000 144.396057,522.641357 
	C141.920395,521.289612 139.923599,520.400940 138.061295,519.287354 
	C121.285728,509.255463 105.801109,497.478394 90.985687,484.753052 
	C87.250450,481.544769 86.922668,479.314850 90.480507,475.649994 
	C96.492104,469.457550 96.153503,469.172485 90.373161,462.796265 
	C86.730431,458.777985 83.467957,454.415009 80.034904,450.206635 
	C80.426079,449.704712 80.817253,449.202789 81.208427,448.700836 
	C88.516487,451.135284 95.824539,453.569733 103.218658,456.465149 
	C103.304718,462.192047 103.304718,467.457977 103.304718,472.948975 
	C109.826408,472.948975 115.683304,472.948975 121.466644,472.948975 
	C122.436699,469.885223 121.705170,468.492584 118.614929,468.665680 
	C116.296280,468.795593 113.927422,468.913818 111.652306,468.567810 
	C110.493217,468.391510 109.491394,467.181152 108.418480,466.438202 
	C108.607056,465.926453 108.795639,465.414673 108.984215,464.902924 
	C111.422470,464.902924 113.870186,464.766388 116.296768,464.934631 
	C120.018051,465.192627 121.198593,463.836426 119.564392,460.063171 
	C116.764954,460.063171 113.945503,460.163330 111.141769,459.997650 
	C110.374420,459.952301 109.654190,459.109528 108.912338,458.632721 
	C109.668388,457.988251 110.375298,456.872437 111.189690,456.787506 
	C113.656662,456.530334 116.165245,456.666107 118.657646,456.660675 
	C122.129356,456.653107 122.414925,454.912262 121.351326,452.401123 
	C115.109093,452.401123 109.159691,452.401123 103.108139,452.044800 
	C102.203476,450.892883 101.535332,449.835754 100.577019,449.343384 
	C93.487625,445.700867 86.135071,442.520142 79.279381,438.489807 
	C74.210625,435.509979 70.221024,436.150757 65.534462,439.176178 
	C57.401218,444.426666 58.206631,447.312378 63.394783,452.131531 
	C66.539955,455.052948 68.654343,459.084076 71.231819,462.616669 
	C70.789734,462.953735 70.347649,463.290802 69.905563,463.627869 
	C69.315208,463.153107 68.618843,462.764740 68.150749,462.190338 
	C63.018936,455.892731 57.801182,449.659424 52.853935,443.218811 
	C48.644981,437.739380 44.252575,432.301819 40.836288,426.333405 
	C33.945362,414.294708 27.377323,402.049042 21.224100,389.617493 
	C16.698679,380.474640 12.638910,371.049011 9.132484,361.470886 
	C6.413266,354.043091 4.900597,346.176178 2.748429,338.533508 
	C2.572233,337.907837 1.601521,337.505920 0.999994,337.000000 
M113.656334,438.145599 
	C114.102631,438.225739 114.548927,438.305847 115.032478,439.084290 
	C116.697708,441.898804 117.883865,445.181976 120.105156,447.452454 
	C135.621124,463.312225 154.300430,474.854156 173.671066,485.211609 
	C189.973923,493.928741 207.339172,500.261505 225.337738,504.500153 
	C240.160126,507.990845 255.038834,511.476349 270.480286,511.037781 
	C278.136169,510.820312 285.817993,510.693787 293.462555,511.059570 
	C313.464600,512.016602 332.797577,507.899811 351.647827,502.284088 
	C366.540985,497.847229 381.200012,492.018982 395.142059,485.143768 
	C413.780396,475.952637 431.251190,464.575714 446.337067,450.031586 
	C449.946106,446.552155 452.801331,442.290863 456.916138,438.202026 
	C460.633698,438.202026 464.351227,438.202026 468.392517,438.202026 
	C468.392517,431.548248 468.392517,425.776489 469.086853,419.966370 
	C471.087646,417.525665 473.266174,415.208130 475.057556,412.622345 
	C481.798706,402.891846 488.979553,393.401672 494.896332,383.184784 
	C499.598145,375.065796 501.996887,365.614471 506.687317,357.487122 
	C512.268555,347.816254 514.372131,337.145844 517.027466,326.725372 
	C519.792664,315.873810 520.115845,304.420990 522.501709,293.447418 
	C527.425720,270.800049 524.010071,248.466705 520.671814,226.162521 
	C519.360168,217.399048 515.825684,208.985046 514.233093,200.242554 
	C512.243347,189.320145 508.053284,179.383148 502.902618,169.718704 
	C501.290527,166.693802 499.665649,163.672577 498.165466,160.591797 
	C495.169189,154.438797 492.389099,148.174789 489.187347,142.132736 
	C488.589417,141.004379 486.482422,140.231400 484.994843,140.086777 
	C468.095947,138.443985 458.474487,125.953140 461.327087,109.362625 
	C461.605408,107.744011 461.561646,105.339821 460.593933,104.354347 
	C453.729034,97.363174 446.960022,90.190460 439.416901,83.978500 
	C432.622406,78.382988 424.969147,73.800491 417.535706,69.018288 
	C408.707855,63.339024 399.782715,57.800781 390.740967,52.470757 
	C388.098572,50.913097 384.881866,50.355915 381.986115,49.196037 
	C376.912323,47.163765 371.893677,44.994312 366.829041,42.938648 
	C365.295990,42.316395 363.681946,41.896107 362.114594,41.355442 
	C356.052551,39.264286 350.119324,36.616875 343.905365,35.191509 
	C334.606201,33.058449 325.140228,31.579420 315.690155,30.198843 
	C306.674927,28.881786 297.582306,27.123760 288.535919,27.191433 
	C269.476624,27.334009 250.557617,29.265772 232.006561,34.299919 
	C226.363708,35.831200 220.117752,35.096474 214.977615,38.753677 
	C214.619064,39.008781 213.986435,38.840332 213.513306,38.978550 
	C207.874878,40.625786 201.847656,41.508701 196.683716,44.105824 
	C182.055435,51.462910 167.611130,59.228329 153.417023,67.393791 
	C140.297180,74.941246 128.315155,84.207451 117.949448,95.267784 
	C108.099121,105.778214 97.717194,116.052368 89.548737,127.806244 
	C80.708107,140.527344 74.185799,154.855804 66.602112,168.455200 
	C57.609589,184.580978 52.854519,202.283981 49.350838,220.083221 
	C46.227779,235.948792 44.567921,252.305862 44.335964,268.475769 
	C44.133026,282.622650 46.174751,296.911377 48.379322,310.956207 
	C51.315247,329.660278 56.627113,347.911896 64.900574,364.941467 
	C71.703079,378.943237 80.112862,392.165558 87.844177,405.713989 
	C90.584541,410.516205 93.675186,414.679718 100.117592,411.938110 
	C100.117592,420.611053 100.117592,429.283997 100.117592,437.975800 
	C105.096031,437.975800 109.044838,437.975800 113.656334,438.145599 
M456.255890,451.751892 
	C451.872711,451.922516 446.819885,451.911591 446.120667,457.449615 
	C445.399170,463.163940 450.753723,463.326263 454.582245,464.603943 
	C456.422729,465.218109 458.195129,466.036316 459.998322,466.762146 
	C459.825745,467.447754 459.653168,468.133392 459.480560,468.819000 
	C456.721924,468.471497 453.512238,468.893341 451.307678,467.600800 
	C447.771332,465.527557 447.179321,467.764832 445.685699,469.782928 
	C449.506805,473.598907 454.045288,474.277222 458.375092,473.013519 
	C460.952942,472.261108 464.106567,469.862183 464.910522,467.493774 
	C466.138672,463.875793 462.631439,462.103088 459.530548,460.997681 
	C456.836151,460.037109 454.084900,459.236084 451.358765,458.364563 
	C451.452484,457.818176 451.546234,457.271790 451.639954,456.725403 
	C453.909149,456.845612 456.566467,456.257721 458.362030,457.242035 
	C461.532410,458.979980 463.113312,458.124542 464.944794,454.502411 
	C462.158722,453.570282 459.584198,452.708923 456.255890,451.751892 
z"/>
<path fill="#2B2B36" opacity="1.000000" stroke="none" 
	d="
M421.468658,523.000000 
	C422.615784,521.414001 424.019745,519.497253 425.885742,518.301819 
	C432.395996,514.131226 439.230072,510.454376 445.644012,506.147461 
	C463.597809,494.091766 480.451874,480.605896 494.859741,464.441406 
	C503.785675,454.427155 512.234131,443.879333 519.889771,432.870636 
	C527.817444,421.470856 535.013611,409.486542 541.606018,397.259857 
	C546.234253,388.675995 549.863892,379.440948 552.959229,370.169434 
	C557.783203,355.720123 562.484192,341.156219 565.896179,326.332245 
	C568.632263,314.444916 569.756348,302.134399 570.885559,289.945862 
	C571.803650,280.035339 572.377747,269.988129 571.830688,260.071747 
	C571.046387,245.853775 569.442017,231.654892 567.572876,217.529221 
	C564.963501,197.808701 558.701050,178.978256 551.176270,160.707535 
	C545.901917,147.900970 538.504944,135.985657 532.729736,123.363968 
	C525.271667,107.064285 512.457458,94.655273 502.277710,80.357063 
	C496.872589,72.765144 489.455139,66.529419 482.559814,60.095436 
	C474.947205,52.992188 467.389069,45.658684 458.919006,39.684734 
	C444.616516,29.597178 429.702606,20.360430 414.850342,11.078647 
	C410.671783,8.467273 405.764526,7.043455 401.288666,4.874402 
	C399.750305,4.128895 398.507904,2.772622 397.065155,1.347684 
	C420.354218,1.000000 443.708466,1.000000 467.588928,1.339622 
	C473.085724,5.967614 478.105408,10.200595 483.017120,14.555400 
	C494.667816,24.885118 506.401062,35.129448 517.774780,45.757359 
	C520.054382,47.887486 523.835144,50.691120 520.442932,55.081104 
	C517.912903,58.355217 515.339905,61.653770 513.293701,65.231750 
	C509.242096,72.316437 508.042053,79.815445 513.065430,86.877319 
	C517.904480,93.679993 523.685425,99.865013 533.215576,97.854294 
	C538.494385,96.740532 543.716858,94.810959 548.571777,92.443245 
	C551.469055,91.030243 553.183228,91.199944 554.940613,93.531990 
	C556.040283,94.991264 557.056396,96.522461 558.004761,98.085304 
	C566.529114,112.133148 575.176453,126.105492 580.591797,141.785950 
	C581.181824,143.494339 583.489197,144.609619 585.000000,146.000000 
	C585.000000,236.687561 585.000000,327.375122 584.642700,418.589905 
	C582.921570,420.421906 581.170227,421.504150 580.268555,423.074310 
	C577.816650,427.343781 576.151978,432.108887 573.411926,436.161407 
	C564.052124,450.004578 555.133484,464.254181 544.591614,477.160309 
	C533.412476,490.846619 520.548279,503.153717 508.482422,516.121277 
	C506.490936,518.261597 504.819427,520.699585 503.000000,523.000000 
	C475.979095,523.000000 448.958221,523.000000 421.468658,523.000000 
z"/>
<path fill="#292934" opacity="1.000000" stroke="none" 
	d="
M135.531342,1.000001 
	C135.106735,2.441998 134.553223,4.408785 133.265945,5.242159 
	C123.803139,11.368279 113.615074,16.522608 104.756050,23.400621 
	C88.510910,36.013084 72.792229,49.270351 59.200005,64.952438 
	C46.539127,79.559975 34.468540,94.618515 24.756338,111.251152 
	C16.993454,124.545479 11.024149,138.885880 4.217569,152.741745 
	C3.515000,154.171921 2.531217,155.463943 1.338962,156.910034 
	C1.000000,105.078255 1.000000,53.156517 1.000000,1.000000 
	C45.687286,1.000000 90.374985,1.000000 135.531342,1.000001 
z"/>
<path fill="#2B2B36" opacity="1.000000" stroke="none" 
	d="
M103.132591,456.004181 
	C95.824539,453.569733 88.516487,451.135284 81.208427,448.700836 
	C80.817253,449.202789 80.426079,449.704712 80.034904,450.206635 
	C83.467957,454.415009 86.730431,458.777985 90.373161,462.796265 
	C96.153503,469.172485 96.492104,469.457550 90.480507,475.649994 
	C86.922668,479.314850 87.250450,481.544769 90.985687,484.753052 
	C105.801109,497.478394 121.285728,509.255463 138.061295,519.287354 
	C139.923599,520.400940 141.920395,521.289612 143.927399,522.641357 
	C123.979103,523.000000 103.958214,523.000000 83.407486,522.660583 
	C77.529930,517.514648 72.332962,512.525513 66.792381,507.952728 
	C61.163250,503.306793 61.175591,502.307190 65.868011,496.454376 
	C68.604149,493.041626 70.934937,489.025513 72.361801,484.904724 
	C74.677345,478.217377 69.840820,471.636230 62.839588,472.167084 
	C57.003735,472.609589 51.280590,474.512970 45.501160,475.739319 
	C43.510204,476.161774 41.500019,476.493591 39.498615,476.866791 
	C39.165798,476.123047 38.832981,475.379333 38.500164,474.635590 
	C42.532574,471.399994 46.684193,468.297668 50.531498,464.855194 
	C51.845207,463.679779 52.394711,461.650269 53.293377,460.010986 
	C51.179184,459.183563 48.755089,457.256042 47.012257,457.747009 
	C42.769230,458.942230 38.675194,460.970306 34.827457,463.193146 
	C29.159586,466.467560 27.808821,466.569672 24.228460,461.287994 
	C17.726139,451.695923 11.520292,441.903046 5.044091,432.292816 
	C4.114446,430.913269 2.368292,430.083954 1.000002,429.000000 
	C1.000000,398.645782 1.000000,368.291534 0.999994,337.468658 
	C1.601521,337.505920 2.572233,337.907837 2.748429,338.533508 
	C4.900597,346.176178 6.413266,354.043091 9.132484,361.470886 
	C12.638910,371.049011 16.698679,380.474640 21.224100,389.617493 
	C27.377323,402.049042 33.945362,414.294708 40.836288,426.333405 
	C44.252575,432.301819 48.644981,437.739380 52.853935,443.218811 
	C57.801182,449.659424 63.018936,455.892731 68.150749,462.190338 
	C68.618843,462.764740 69.315208,463.153107 69.905563,463.627869 
	C70.347649,463.290802 70.789734,462.953735 71.231819,462.616669 
	C68.654343,459.084076 66.539955,455.052948 63.394783,452.131531 
	C58.206631,447.312378 57.401218,444.426666 65.534462,439.176178 
	C70.221024,436.150757 74.210625,435.509979 79.279381,438.489807 
	C86.135071,442.520142 93.487625,445.700867 100.577019,449.343384 
	C101.535332,449.835754 102.203476,450.892883 103.169365,452.402527 
	C103.266022,454.079102 103.199303,455.041656 103.132591,456.004181 
M73.544357,467.142548 
	C73.839363,467.086975 74.134377,467.031403 74.429382,466.975830 
	C74.136909,466.908386 73.844437,466.840912 73.544357,467.142548 
M77.142517,470.455627 
	C77.086975,470.160645 77.031425,469.865631 76.975883,469.570648 
	C76.908394,469.863098 76.840904,470.155548 77.142517,470.455627 
z"/>
<path fill="#292935" opacity="1.000000" stroke="none" 
	d="
M585.000000,145.531342 
	C583.489197,144.609619 581.181824,143.494339 580.591797,141.785950 
	C575.176453,126.105492 566.529114,112.133148 558.004761,98.085304 
	C557.056396,96.522461 556.040283,94.991264 554.940613,93.531990 
	C553.183228,91.199944 551.469055,91.030243 548.571777,92.443245 
	C543.716858,94.810959 538.494385,96.740532 533.215576,97.854294 
	C523.685425,99.865013 517.904480,93.679993 513.065430,86.877319 
	C508.042053,79.815445 509.242096,72.316437 513.293701,65.231750 
	C515.339905,61.653770 517.912903,58.355217 520.442932,55.081104 
	C523.835144,50.691120 520.054382,47.887486 517.774780,45.757359 
	C506.401062,35.129448 494.667816,24.885118 483.017120,14.555400 
	C478.105408,10.200595 473.085724,5.967614 468.057556,1.339622 
	C483.020905,1.000000 498.041779,1.000000 513.535400,1.378673 
	C514.663391,2.992131 515.060913,4.490610 516.013306,5.421267 
	C526.544434,15.712215 537.312378,25.765762 547.670166,36.226234 
	C551.093933,39.683891 553.520081,44.129311 556.628540,48.436558 
	C539.585205,44.425854 525.556763,49.553932 523.354919,61.397285 
	C526.596191,60.440712 529.304199,59.523079 532.071960,58.851063 
	C536.815491,57.699310 541.587952,56.811314 545.830688,60.369244 
	C551.958069,65.507683 553.035828,70.667511 549.474976,78.028915 
	C547.811829,81.467232 546.067688,84.866386 544.360229,88.283287 
	C550.973206,86.914413 556.243042,84.007217 559.107056,78.484894 
	C561.890320,73.118248 563.786987,67.291817 566.509216,60.593945 
	C569.343872,64.565460 572.132751,67.938217 574.314209,71.666382 
	C576.951965,76.174408 579.733643,80.309868 585.000000,82.000000 
	C585.000000,103.020897 585.000000,124.041786 585.000000,145.531342 
z"/>
<path fill="#292935" opacity="1.000000" stroke="none" 
	d="
M1.000002,429.468658 
	C2.368292,430.083954 4.114446,430.913269 5.044091,432.292816 
	C11.520292,441.903046 17.726139,451.695923 24.228460,461.287994 
	C27.808821,466.569672 29.159586,466.467560 34.827457,463.193146 
	C38.675194,460.970306 42.769230,458.942230 47.012257,457.747009 
	C48.755089,457.256042 51.179184,459.183563 53.293377,460.010986 
	C52.394711,461.650269 51.845207,463.679779 50.531498,464.855194 
	C46.684193,468.297668 42.532574,471.399994 38.500164,474.635590 
	C38.832981,475.379333 39.165798,476.123047 39.498615,476.866791 
	C41.500019,476.493591 43.510204,476.161774 45.501160,475.739319 
	C51.280590,474.512970 57.003735,472.609589 62.839588,472.167084 
	C69.840820,471.636230 74.677345,478.217377 72.361801,484.904724 
	C70.934937,489.025513 68.604149,493.041626 65.868011,496.454376 
	C61.175591,502.307190 61.163250,503.306793 66.792381,507.952728 
	C72.332962,512.525513 77.529930,517.514648 82.938828,522.660583 
	C55.734776,523.000000 28.469551,523.000000 1.000000,523.000000 
	C1.000000,491.979401 1.000000,460.958374 1.000002,429.468658 
z"/>
<path fill="#272733" opacity="1.000000" stroke="none" 
	d="
M503.468689,523.000000 
	C504.819427,520.699585 506.490936,518.261597 508.482422,516.121277 
	C520.548279,503.153717 533.412476,490.846619 544.591614,477.160309 
	C555.133484,464.254181 564.052124,450.004578 573.411926,436.161407 
	C576.151978,432.108887 577.816650,427.343781 580.268555,423.074310 
	C581.170227,421.504150 582.921570,420.421906 584.642700,419.058533 
	C585.000000,453.584930 585.000000,488.169891 585.000000,523.000000 
	C557.979614,523.000000 530.958435,523.000000 503.468689,523.000000 
z"/>
<path fill="#272733" opacity="1.000000" stroke="none" 
	d="
M585.000000,81.531342 
	C579.733643,80.309868 576.951965,76.174408 574.314209,71.666382 
	C572.132751,67.938217 569.343872,64.565460 566.509216,60.593945 
	C563.786987,67.291817 561.890320,73.118248 559.107056,78.484894 
	C556.243042,84.007217 550.973206,86.914413 544.360229,88.283287 
	C546.067688,84.866386 547.811829,81.467232 549.474976,78.028915 
	C553.035828,70.667511 551.958069,65.507683 545.830688,60.369244 
	C541.587952,56.811314 536.815491,57.699310 532.071960,58.851063 
	C529.304199,59.523079 526.596191,60.440712 523.354919,61.397285 
	C525.556763,49.553932 539.585205,44.425854 556.628540,48.436558 
	C553.520081,44.129311 551.093933,39.683891 547.670166,36.226234 
	C537.312378,25.765762 526.544434,15.712215 516.013306,5.421267 
	C515.060913,4.490610 514.663391,2.992131 514.004089,1.378673 
	C537.598328,1.000000 561.196716,1.000000 585.000000,1.000000 
	C585.000000,27.687212 585.000000,54.374947 585.000000,81.531342 
z"/>
<path fill="#30303C" opacity="1.000000" stroke="none" 
	d="
M100.106682,410.999329 
	C93.675186,414.679718 90.584541,410.516205 87.844177,405.713989 
	C80.112862,392.165558 71.703079,378.943237 64.900574,364.941467 
	C56.627113,347.911896 51.315247,329.660278 48.379322,310.956207 
	C46.174751,296.911377 44.133026,282.622650 44.335964,268.475769 
	C44.567921,252.305862 46.227779,235.948792 49.350838,220.083221 
	C52.854519,202.283981 57.609589,184.580978 66.602112,168.455200 
	C74.185799,154.855804 80.708107,140.527344 89.548737,127.806244 
	C97.717194,116.052368 108.099121,105.778214 117.949448,95.267784 
	C128.315155,84.207451 140.297180,74.941246 153.417023,67.393791 
	C167.611130,59.228329 182.055435,51.462910 196.683716,44.105824 
	C201.847656,41.508701 207.874878,40.625786 213.513306,38.978550 
	C213.986435,38.840332 214.619064,39.008781 214.977615,38.753677 
	C220.117752,35.096474 226.363708,35.831200 232.006561,34.299919 
	C250.557617,29.265772 269.476624,27.334009 288.535919,27.191433 
	C297.582306,27.123760 306.674927,28.881786 315.690155,30.198843 
	C325.140228,31.579420 334.606201,33.058449 343.905365,35.191509 
	C350.119324,36.616875 356.052551,39.264286 362.114594,41.355442 
	C363.681946,41.896107 365.295990,42.316395 366.829041,42.938648 
	C371.893677,44.994312 376.912323,47.163765 381.986115,49.196037 
	C384.881866,50.355915 388.098572,50.913097 390.740967,52.470757 
	C399.782715,57.800781 408.707855,63.339024 417.535706,69.018288 
	C424.969147,73.800491 432.622406,78.382988 439.416901,83.978500 
	C446.960022,90.190460 453.729034,97.363174 460.593933,104.354347 
	C461.561646,105.339821 461.605408,107.744011 461.327087,109.362625 
	C458.474487,125.953140 468.095947,138.443985 484.994843,140.086777 
	C486.482422,140.231400 488.589417,141.004379 489.187347,142.132736 
	C492.389099,148.174789 495.169189,154.438797 498.165466,160.591797 
	C499.665649,163.672577 501.290527,166.693802 502.902618,169.718704 
	C508.053284,179.383148 512.243347,189.320145 514.233093,200.242554 
	C515.825684,208.985046 519.360168,217.399048 520.671814,226.162521 
	C524.010071,248.466705 527.425720,270.800049 522.501709,293.447418 
	C520.115845,304.420990 519.792664,315.873810 517.027466,326.725372 
	C514.372131,337.145844 512.268555,347.816254 506.687317,357.487122 
	C501.996887,365.614471 499.598145,375.065796 494.896332,383.184784 
	C488.979553,393.401672 481.798706,402.891846 475.057556,412.622345 
	C473.266174,415.208130 471.087646,417.525665 468.641479,419.525757 
	C468.196106,400.177032 468.196106,381.268921 468.196106,361.994781 
	C464.577026,361.994781 461.739105,362.275116 458.978516,361.932526 
	C454.214111,361.341248 452.739685,363.021667 452.876740,367.894775 
	C453.228699,380.412201 452.994385,392.946075 452.994385,405.473389 
	C452.674438,405.536865 452.354523,405.600372 452.034576,405.663849 
	C446.858276,395.164551 441.681976,384.665253 436.849304,374.008362 
	C439.144226,370.874603 441.316284,368.017853 443.003815,364.898926 
	C447.387787,356.796326 451.748718,348.670044 455.748901,340.374817 
	C458.466827,334.738617 461.359131,328.987335 462.763885,322.959015 
	C465.562683,310.948456 467.895294,298.776093 469.457977,286.547546 
	C470.681580,276.972443 471.289948,267.156372 470.650482,257.548584 
	C469.928986,246.707748 467.983887,235.876266 465.673462,225.235565 
	C463.753082,216.391129 460.859131,207.710693 457.769501,199.184784 
	C455.819183,193.802902 452.324829,188.988953 450.269470,183.633774 
	C448.936310,180.160202 447.665741,179.201050 443.798767,179.653290 
	C436.028015,180.562057 428.191864,180.709732 421.530701,175.082428 
	C410.845001,166.055237 410.937439,155.206863 416.524597,142.502731 
	C418.045654,139.044067 417.946136,136.930756 415.235352,134.753311 
	C410.494019,130.944824 405.419708,127.498886 401.002747,123.349770 
	C392.982117,115.815437 384.249054,109.504227 374.169495,105.012222 
	C363.331116,100.182053 352.909851,94.163696 341.711060,90.468658 
	C331.470551,87.089806 320.434723,86.121468 309.476410,83.913185 
	C308.249390,81.976036 307.295319,80.216560 306.341248,78.457085 
	C304.024017,80.655396 303.414703,81.205856 302.814972,81.766541 
	C290.104980,93.648651 277.838287,93.395531 265.299652,81.159691 
	C264.628418,80.504646 262.509277,80.489067 261.651581,81.059319 
	C260.222717,82.009315 259.269806,83.675179 257.784882,84.902603 
	C249.792419,86.748428 241.739334,85.094742 234.045670,88.785126 
	C225.247253,93.005394 215.503326,95.219360 206.288055,98.624016 
	C202.916031,99.869850 199.764206,101.847275 196.717407,103.809967 
	C190.101532,108.071770 183.618851,112.540283 177.077393,116.917862 
	C176.802841,117.101585 176.447083,117.173279 176.192856,117.376755 
	C168.479218,123.550423 159.829926,128.884323 153.304626,136.130463 
	C145.077179,145.266785 135.261932,153.198593 129.649460,164.651123 
	C126.992836,170.072083 122.800789,174.732086 120.054306,180.119171 
	C112.888390,194.174744 107.307152,208.785156 103.510559,224.226944 
	C100.117348,238.028076 98.260162,251.975006 98.277573,265.965790 
	C98.293556,278.815979 99.622932,291.875824 102.246246,304.452728 
	C104.929848,317.318695 109.690125,329.777496 113.932991,342.281647 
	C116.193275,348.942963 119.281609,355.323303 121.532654,361.901672 
	C114.352539,361.972900 107.635986,361.972900 100.781250,361.972900 
	C100.781250,378.535980 100.781250,394.250977 100.604538,410.219025 
	C100.320786,410.647858 100.213730,410.823578 100.106682,410.999329 
M266.337280,59.281509 
	C265.893921,61.853405 264.809814,64.505119 265.118530,66.983322 
	C266.429413,77.506088 273.719116,86.791672 287.016205,85.055176 
	C293.856262,84.161926 301.481140,77.501617 302.913055,70.652847 
	C304.501984,63.053234 300.723755,53.796574 294.599304,50.284286 
	C283.897186,44.146759 273.795532,47.225273 266.337280,59.281509 
M466.115479,152.373840 
	C469.517578,138.815399 456.770233,125.113487 443.348969,128.305939 
	C439.590851,129.199860 436.089142,131.587372 432.777618,133.759094 
	C431.229950,134.774094 430.415222,136.906647 429.268311,138.532684 
	C431.194000,138.734421 433.140472,139.216309 435.040741,139.075241 
	C438.255920,138.836609 441.695007,137.192947 444.594666,137.918854 
	C455.077515,140.543167 458.938446,151.241623 453.145142,160.292297 
	C452.337524,161.554016 451.290100,162.712921 450.747772,164.076187 
	C450.377563,165.006668 450.275726,166.617966 450.820526,167.174820 
	C451.351379,167.717468 453.372559,167.772644 453.854279,167.240524 
	C458.008759,162.651413 461.962891,157.880936 466.115479,152.373840 
z"/>
<path fill="#30303B" opacity="1.000000" stroke="none" 
	d="
M456.003265,438.389160 
	C452.801331,442.290863 449.946106,446.552155 446.337067,450.031586 
	C431.251190,464.575714 413.780396,475.952637 395.142059,485.143768 
	C381.200012,492.018982 366.540985,497.847229 351.647827,502.284088 
	C332.797577,507.899811 313.464600,512.016602 293.462555,511.059570 
	C285.817993,510.693787 278.136169,510.820312 270.480286,511.037781 
	C255.038834,511.476349 240.160126,507.990845 225.337738,504.500153 
	C207.339172,500.261505 189.973923,493.928741 173.671066,485.211609 
	C154.300430,474.854156 135.621124,463.312225 120.105156,447.452454 
	C117.883865,445.181976 116.697708,441.898804 115.442825,438.637634 
	C117.901283,438.121368 119.949402,438.051758 122.330124,438.083710 
	C126.775627,438.119690 130.888535,438.054077 135.457336,438.067627 
	C139.148987,438.146820 142.384766,438.146820 145.640747,438.146820 
	C145.640747,432.724792 145.640747,428.041077 145.640747,423.138458 
	C139.190201,423.138458 133.102432,423.138458 126.555527,423.063843 
	C122.728401,422.989258 119.360420,422.989258 115.655891,422.989258 
	C115.655891,417.877228 115.655891,413.467560 115.833694,408.703003 
	C122.562927,408.348114 129.114365,408.348114 135.824066,408.348114 
	C135.824066,402.469696 135.824066,397.847260 135.824066,392.469604 
	C129.145493,392.469604 122.616348,392.469604 116.178207,392.469604 
	C116.178207,386.975250 116.178207,382.241089 116.178207,376.957855 
	C126.303566,376.957855 136.097351,376.957855 146.200775,377.125977 
	C149.653671,378.529907 152.796906,379.765747 156.033386,381.363861 
	C156.208008,382.467377 156.289383,383.208588 156.260544,384.410095 
	C156.225327,392.265076 156.300323,399.659729 156.291580,407.512817 
	C156.193954,416.579926 156.331650,425.192871 156.093353,433.795349 
	C155.994812,437.352844 157.232605,438.330811 160.656113,438.242310 
	C167.430817,438.067200 174.216507,438.318054 181.018036,438.740845 
	C182.359756,440.646118 183.436646,442.556091 185.058350,443.679871 
	C187.648605,445.474762 190.900894,446.376373 193.323029,448.335846 
	C196.258301,450.710358 199.078262,452.506073 203.028900,452.142883 
	C204.038071,452.050140 205.120590,452.943573 206.193176,453.315277 
	C208.831573,454.229584 211.483780,455.104034 214.319977,456.311340 
	C215.767929,460.748138 216.807831,464.954773 218.390015,468.946411 
	C219.042068,470.591461 220.859848,471.774475 222.147446,473.167633 
	C223.432571,471.816071 224.949203,470.611755 225.931427,469.067505 
	C226.755722,467.771606 226.956879,466.079376 227.879150,463.146973 
	C228.868591,466.277863 229.174622,468.246704 230.099609,469.860870 
	C230.857742,471.183899 232.303024,472.863037 233.535706,472.941650 
	C234.645401,473.012421 236.358704,471.344696 236.957794,470.051025 
	C238.120316,467.540588 238.687653,464.754578 239.691437,462.446106 
	C242.782135,466.456726 246.644028,468.000397 251.217163,467.998688 
	C257.703308,467.996307 264.194702,467.855682 270.672485,468.088806 
	C272.641571,468.159698 274.573273,469.269348 276.376617,470.181702 
	C274.697906,473.432220 276.080353,474.506836 278.827087,473.842926 
	C280.038361,473.550171 281.178680,472.183105 281.961456,471.037445 
	C284.889160,466.752716 291.900696,466.796265 294.095673,471.502838 
	C295.595093,474.717957 297.432220,474.310913 300.138916,473.418091 
	C299.677155,471.783661 299.287750,470.405396 299.325684,468.999969 
	C305.208954,468.648560 310.669312,468.382629 316.118774,467.972229 
	C318.403473,467.800140 320.688782,467.433655 322.932251,466.959198 
	C327.242950,466.047516 331.523987,464.995758 335.877991,464.447754 
	C335.964874,467.053925 335.677277,469.286346 336.148773,471.344849 
	C336.387451,472.386932 337.994965,473.791260 338.988159,473.794952 
	C339.982849,473.798584 341.498993,472.435120 341.860809,471.359497 
	C342.410034,469.726776 342.159393,467.824982 342.245148,466.105743 
	C347.918518,465.426239 348.186890,465.809784 351.117859,470.038971 
	C352.298218,471.742157 354.655029,472.630066 356.476410,473.889008 
	C356.880646,473.415771 357.284851,472.942505 357.689056,472.469269 
	C356.210785,469.550873 354.732513,466.632507 353.754852,464.702393 
	C354.537384,461.642273 355.121185,459.359283 356.043518,456.934631 
	C365.130798,452.643188 374.022949,448.765594 382.581726,444.255249 
	C389.099731,440.820435 395.200012,436.591339 401.475433,432.698395 
	C405.048065,430.482178 408.599274,428.231445 412.293610,426.439453 
	C412.427094,430.492615 412.427094,434.102539 412.427094,438.002808 
	C416.494934,438.002808 419.979370,437.787170 423.424774,438.061615 
	C427.088135,438.353424 427.982788,436.728760 427.892639,433.406830 
	C427.753418,428.276489 427.984863,423.136078 428.400574,417.937500 
	C431.313782,415.521088 433.885590,413.167114 436.791107,411.031738 
	C440.422974,418.215973 443.932343,425.092010 446.940063,432.180878 
	C448.739136,436.421051 451.208252,438.899780 456.003265,438.389160 
M395.605225,451.977722 
	C394.171875,452.084076 392.738556,452.190399 391.387512,452.290619 
	C391.387512,459.413696 391.387512,466.126892 391.387512,473.109009 
	C395.107330,473.109009 398.426331,473.240662 401.731415,473.082184 
	C409.164886,472.725769 411.990143,469.764008 412.016632,462.551819 
	C412.041290,455.848053 408.566315,452.326294 401.544891,451.998047 
	C399.884277,451.920349 398.217194,451.980774 395.605225,451.977722 
M169.741302,472.843445 
	C176.234589,470.225311 178.174042,466.632172 176.892258,459.595154 
	C176.006149,454.730316 172.457565,452.180237 166.154022,451.996094 
	C163.212204,451.910126 160.265793,451.981354 157.172333,451.981354 
	C157.172333,459.286835 157.172333,465.992279 157.172333,472.951172 
	C161.304504,472.951172 165.090286,472.951172 169.741302,472.843445 
z"/>
<path fill="#FEFEFE" opacity="1.000000" stroke="none" 
	d="
M428.059143,417.999939 
	C427.984863,423.136078 427.753418,428.276489 427.892639,433.406830 
	C427.982788,436.728760 427.088135,438.353424 423.424774,438.061615 
	C419.979370,437.787170 416.494934,438.002808 412.427094,438.002808 
	C412.427094,434.102539 412.427094,430.492615 412.430145,425.988190 
	C412.342712,412.727753 412.252228,400.361816 412.298645,387.544678 
	C412.455658,380.148010 412.606384,373.199341 412.438538,366.258423 
	C412.359375,362.983612 413.589600,362.013062 416.771423,361.935120 
	C429.809753,361.615570 429.806702,361.525970 435.749756,372.904755 
	C435.976257,373.338470 436.252563,373.746155 436.505676,374.165955 
	C441.681976,384.665253 446.858276,395.164551 452.034576,405.663849 
	C452.354523,405.600372 452.674438,405.536865 452.994385,405.473389 
	C452.994385,392.946075 453.228699,380.412201 452.876740,367.894775 
	C452.739685,363.021667 454.214111,361.341248 458.978516,361.932526 
	C461.739105,362.275116 464.577026,361.994781 468.196106,361.994781 
	C468.196106,381.268921 468.196106,400.177032 468.294312,419.544922 
	C468.392517,425.776489 468.392517,431.548248 468.392517,438.202026 
	C464.351227,438.202026 460.633698,438.202026 456.459717,438.295593 
	C451.208252,438.899780 448.739136,436.421051 446.940063,432.180878 
	C443.932343,425.092010 440.422974,418.215973 436.794983,410.710999 
	C433.937897,405.070770 431.410614,399.969971 428.883331,394.869141 
	C428.608582,395.005341 428.333862,395.141571 428.059113,395.277771 
	C428.059113,402.851837 428.059113,410.425873 428.059143,417.999939 
z"/>
<path fill="#EBEBEC" opacity="1.000000" stroke="none" 
	d="
M135.001450,437.988464 
	C130.888535,438.054077 126.775627,438.119690 122.329590,437.720764 
	C119.406845,431.994171 115.560623,427.899323 110.101082,424.993042 
	C111.065269,429.320618 112.029465,433.648224 112.993652,437.975800 
	C109.044838,437.975800 105.096031,437.975800 100.117592,437.975800 
	C100.117592,429.283997 100.117592,420.611053 100.112137,411.468719 
	C100.213730,410.823578 100.320786,410.647858 100.916893,410.197449 
	C105.910622,405.592529 110.538254,403.288300 115.655891,409.057922 
	C115.655891,413.467560 115.655891,417.877228 115.655891,422.989258 
	C119.360420,422.989258 122.728401,422.989258 126.607735,423.400513 
	C128.280869,425.578552 129.569153,427.276611 130.575317,429.127930 
	C132.150894,432.026978 133.535782,435.029694 135.001450,437.988464 
z"/>
<path fill="#6CC6A3" opacity="1.000000" stroke="none" 
	d="
M103.218658,456.465149 
	C103.199303,455.041656 103.266022,454.079102 103.271515,452.758850 
	C109.159691,452.401123 115.109093,452.401123 121.351326,452.401123 
	C122.414925,454.912262 122.129356,456.653107 118.657646,456.660675 
	C116.165245,456.666107 113.656662,456.530334 111.189690,456.787506 
	C110.375298,456.872437 109.668388,457.988251 108.912338,458.632721 
	C109.654190,459.109528 110.374420,459.952301 111.141769,459.997650 
	C113.945503,460.163330 116.764954,460.063171 119.564392,460.063171 
	C121.198593,463.836426 120.018051,465.192627 116.296768,464.934631 
	C113.870186,464.766388 111.422470,464.902924 108.984215,464.902924 
	C108.795639,465.414673 108.607056,465.926453 108.418480,466.438202 
	C109.491394,467.181152 110.493217,468.391510 111.652306,468.567810 
	C113.927422,468.913818 116.296280,468.795593 118.614929,468.665680 
	C121.705170,468.492584 122.436699,469.885223 121.466644,472.948975 
	C115.683304,472.948975 109.826408,472.948975 103.304718,472.948975 
	C103.304718,467.457977 103.304718,462.192047 103.218658,456.465149 
z"/>
<path fill="#6CC6A3" opacity="1.000000" stroke="none" 
	d="
M456.632782,451.799744 
	C459.584198,452.708923 462.158722,453.570282 464.944794,454.502411 
	C463.113312,458.124542 461.532410,458.979980 458.362030,457.242035 
	C456.566467,456.257721 453.909149,456.845612 451.639954,456.725403 
	C451.546234,457.271790 451.452484,457.818176 451.358765,458.364563 
	C454.084900,459.236084 456.836151,460.037109 459.530548,460.997681 
	C462.631439,462.103088 466.138672,463.875793 464.910522,467.493774 
	C464.106567,469.862183 460.952942,472.261108 458.375092,473.013519 
	C454.045288,474.277222 449.506805,473.598907 445.685699,469.782928 
	C447.179321,467.764832 447.771332,465.527557 451.307678,467.600800 
	C453.512238,468.893341 456.721924,468.471497 459.480560,468.819000 
	C459.653168,468.133392 459.825745,467.447754 459.998322,466.762146 
	C458.195129,466.036316 456.422729,465.218109 454.582245,464.603943 
	C450.753723,463.326263 445.399170,463.163940 446.120667,457.449615 
	C446.819885,451.911591 451.872711,451.922516 456.632782,451.799744 
z"/>
<path fill="#FFFFFF" opacity="1.000000" stroke="none" 
	d="
M113.324997,438.060699 
	C112.029465,433.648224 111.065269,429.320618 110.101082,424.993042 
	C115.560623,427.899323 119.406845,431.994171 121.996986,437.619202 
	C119.949402,438.051758 117.901283,438.121368 115.424194,438.288452 
	C114.548927,438.305847 114.102631,438.225739 113.324997,438.060699 
z"/>
<path fill="#2D2D38" opacity="1.000000" stroke="none" 
	d="
M73.548157,466.958008 
	C73.844437,466.840912 74.136909,466.908386 74.429382,466.975830 
	C74.134377,467.031403 73.839363,467.086975 73.548157,466.958008 
z"/>
<path fill="#2D2D38" opacity="1.000000" stroke="none" 
	d="
M76.957962,470.451813 
	C76.840904,470.155548 76.908394,469.863098 76.975883,469.570648 
	C77.031425,469.865631 77.086975,470.160645 76.957962,470.451813 
z"/>
<path fill="#343440" opacity="1.000000" stroke="none" 
	d="
M436.849304,374.008362 
	C436.252563,373.746155 435.976257,373.338470 435.749756,372.904755 
	C429.806702,361.525970 429.809753,361.615570 416.771423,361.935120 
	C413.589600,362.013062 412.359375,362.983612 412.438538,366.258423 
	C412.606384,373.199341 412.455658,380.148010 411.940002,387.593567 
	C408.983643,389.396179 406.522797,390.698669 403.961792,391.593140 
	C403.612701,389.206818 403.423401,387.218872 403.105194,385.251770 
	C401.064117,372.634064 390.520386,363.190826 377.358093,362.157806 
	C365.479156,361.225494 352.561523,368.948303 349.906494,380.731873 
	C346.323792,396.632477 344.812439,412.903046 353.472168,428.077454 
	C348.303192,429.847870 343.552795,431.766937 338.648468,433.133514 
	C336.899658,433.620758 334.777710,432.768951 332.968445,432.237091 
	C333.421967,431.555176 333.711517,431.144867 334.047485,430.776917 
	C340.697662,423.492157 341.948242,415.016754 338.167725,406.267090 
	C334.538818,397.868286 327.634949,393.251984 318.291412,392.719849 
	C314.974731,392.530945 311.639252,392.492950 308.347351,392.095856 
	C304.462372,391.627197 302.449066,388.925018 302.293457,385.297699 
	C302.137848,381.670715 303.990143,378.789154 307.693481,377.883820 
	C310.079285,377.300537 312.627777,377.240479 315.106750,377.208313 
	C321.696075,377.122650 328.287231,377.179199 335.172180,377.179199 
	C335.172180,372.577911 335.389130,368.743195 335.033844,364.962250 
	C334.933319,363.892487 333.169983,362.138672 332.154022,362.127838 
	C323.834106,362.039154 315.454865,361.736359 307.201569,362.568451 
	C295.645386,363.733582 287.268494,373.203003 286.996857,384.205933 
	C286.718048,395.500122 294.230225,404.907745 305.732269,407.170715 
	C309.281830,407.869049 313.012268,407.645416 316.659485,407.851135 
	C321.606201,408.130188 324.963287,411.186829 324.948029,415.389069 
	C324.933228,419.464111 321.403015,422.807617 316.638794,422.957336 
	C311.977417,423.103760 307.307892,422.992462 302.641968,422.992615 
	C291.157837,422.992920 291.238220,422.987762 291.934326,434.728546 
	C292.088776,437.333374 292.998077,438.232880 295.525787,438.205994 
	C300.350281,438.154663 305.177094,438.318695 309.855530,438.710632 
	C308.215759,439.653870 306.747253,440.752747 305.227295,440.829254 
	C295.173889,441.335175 285.084381,442.205658 275.057373,441.775208 
	C268.315460,441.485809 261.656921,439.254730 255.019135,437.435028 
	C255.077194,432.399902 255.077194,427.822113 255.077194,422.813782 
	C244.530609,422.813782 234.780746,422.813782 224.845337,422.813782 
	C224.845337,403.868195 224.873291,385.386353 224.793396,366.904968 
	C224.786850,365.389984 224.177658,362.623199 223.625046,362.565125 
	C219.521652,362.134094 215.270187,361.760162 211.284088,362.518646 
	C210.290421,362.707733 209.642044,367.089966 209.606583,369.556000 
	C209.345703,387.701202 209.280701,405.849243 208.791077,423.941589 
	C199.078964,418.242493 189.731094,412.596008 180.379868,406.955048 
	C177.309830,405.103119 177.993423,402.944122 179.965729,400.821442 
	C185.368973,395.006012 185.227982,393.887085 178.007294,390.568604 
	C176.096664,389.690582 173.894531,389.446838 171.692215,388.501465 
	C171.437195,382.077637 171.316193,376.064178 171.346863,369.704163 
	C171.674255,361.917877 171.674255,361.917877 165.531830,362.075745 
	C163.918701,362.008362 162.727020,362.157227 161.590530,361.970398 
	C157.067459,361.226868 155.772583,363.197388 156.079086,367.532440 
	C156.394745,371.996552 156.015396,376.509827 155.940155,381.001587 
	C152.796906,379.765747 149.653671,378.529907 146.250214,376.664429 
	C145.994202,372.565216 145.859741,369.088257 146.045837,365.628479 
	C146.199066,362.780182 145.068405,361.906464 142.304825,361.946869 
	C135.537292,362.045898 128.765991,361.886108 121.996201,361.830444 
	C119.281609,355.323303 116.193275,348.942963 113.932991,342.281647 
	C109.690125,329.777496 104.929848,317.318695 102.246246,304.452728 
	C99.622932,291.875824 98.293556,278.815979 98.277573,265.965790 
	C98.260162,251.975006 100.117348,238.028076 103.510559,224.226944 
	C107.307152,208.785156 112.888390,194.174744 120.054306,180.119171 
	C122.800789,174.732086 126.992836,170.072083 129.649460,164.651123 
	C135.261932,153.198593 145.077179,145.266785 153.304626,136.130463 
	C159.829926,128.884323 168.479218,123.550423 176.192856,117.376755 
	C176.447083,117.173279 176.802841,117.101585 177.077393,116.917862 
	C183.618851,112.540283 190.101532,108.071770 196.717407,103.809967 
	C199.764206,101.847275 202.916031,99.869850 206.288055,98.624016 
	C215.503326,95.219360 225.247253,93.005394 234.045670,88.785126 
	C241.739334,85.094742 249.792419,86.748428 257.649780,85.233780 
	C256.389893,89.339546 254.425964,92.861900 253.569092,96.635628 
	C250.589706,109.756920 257.157135,123.737808 269.105438,130.560242 
	C280.621979,137.136124 295.692047,135.372253 305.729279,126.273666 
	C315.611786,117.315338 318.557373,102.549454 312.881866,90.213036 
	C311.924622,88.132332 310.797821,86.129616 309.749359,84.090858 
	C320.434723,86.121468 331.470551,87.089806 341.711060,90.468658 
	C352.909851,94.163696 363.331116,100.182053 374.169495,105.012222 
	C384.249054,109.504227 392.982117,115.815437 401.002747,123.349770 
	C405.419708,127.498886 410.494019,130.944824 415.235352,134.753311 
	C417.946136,136.930756 418.045654,139.044067 416.524597,142.502731 
	C410.937439,155.206863 410.845001,166.055237 421.530701,175.082428 
	C428.191864,180.709732 436.028015,180.562057 443.798767,179.653290 
	C447.665741,179.201050 448.936310,180.160202 450.269470,183.633774 
	C452.324829,188.988953 455.819183,193.802902 457.769501,199.184784 
	C460.859131,207.710693 463.753082,216.391129 465.673462,225.235565 
	C467.983887,235.876266 469.928986,246.707748 470.650482,257.548584 
	C471.289948,267.156372 470.681580,276.972443 469.457977,286.547546 
	C467.895294,298.776093 465.562683,310.948456 462.763885,322.959015 
	C461.359131,328.987335 458.466827,334.738617 455.748901,340.374817 
	C451.748718,348.670044 447.387787,356.796326 443.003815,364.898926 
	C441.316284,368.017853 439.144226,370.874603 436.849304,374.008362 
M355.455109,226.460205 
	C355.360992,224.963394 355.266907,223.466568 355.335388,221.062897 
	C355.292389,217.364227 355.249420,213.665558 355.460938,209.231064 
	C355.364319,206.144104 355.267700,203.057159 355.366089,199.196243 
	C355.519928,189.058212 356.154388,178.901016 352.599152,169.075195 
	C347.335266,154.526917 330.362610,142.773071 316.241608,144.255875 
	C316.803101,145.835449 317.356903,147.359390 317.887543,148.891357 
	C323.080261,163.882477 321.002838,178.001404 308.501160,187.778992 
	C301.095337,193.571091 300.366028,199.626068 300.831421,207.312195 
	C300.881683,208.141983 300.790070,208.980667 300.845825,209.809738 
	C301.494965,219.460449 297.681244,226.250824 288.002716,229.413391 
	C288.002716,239.125885 287.893768,248.779373 288.127747,258.424561 
	C288.160400,259.771210 289.878632,261.076996 291.271973,262.859894 
	C293.128418,265.570374 294.984863,268.280823 296.754456,271.777313 
	C296.132751,274.504486 295.511078,277.231659 294.346527,280.333557 
	C291.895691,281.935791 289.444824,283.537994 286.142151,285.100647 
	C278.653748,284.976227 274.460144,282.279297 272.658356,276.429230 
	C270.955261,270.899414 272.859314,266.782074 278.904022,262.164612 
	C279.889221,261.412048 280.738129,259.805298 280.760834,258.576935 
	C280.920837,249.915588 280.963165,241.246872 280.731079,232.588867 
	C280.694519,231.226517 279.386688,229.309967 278.141266,228.666275 
	C271.385864,225.174942 267.989349,219.808990 268.004547,212.232620 
	C268.014557,207.234009 268.249207,202.217010 267.874939,197.246521 
	C267.740662,195.462936 266.555237,193.125122 265.105530,192.172440 
	C251.438721,183.191086 245.440598,166.788803 250.426163,151.146591 
	C251.159927,148.844452 252.068314,146.597977 253.042557,143.923111 
	C243.469543,143.665863 235.602219,146.819839 228.661560,152.341415 
	C217.546326,161.183990 213.179260,173.184479 213.159988,187.012802 
	C213.117035,217.837585 213.138031,248.662491 213.162491,279.487335 
	C213.164474,281.980774 213.168610,284.509613 213.557587,286.960754 
	C214.733719,294.372040 220.695068,298.806396 228.193283,298.051971 
	C235.591080,297.307648 239.811920,291.875793 239.832733,282.664001 
	C239.890747,257.004517 239.853378,231.344818 239.853668,205.685211 
	C239.853683,203.776016 239.853668,201.866821 239.853668,199.961365 
	C242.676453,199.961365 244.593262,199.961365 247.064484,199.961365 
	C247.064484,237.032288 247.064484,273.763519 247.064484,310.838257 
	C256.746796,310.838257 265.867859,310.838257 275.900024,310.961609 
	C279.270294,310.924042 282.640533,310.886475 286.940063,310.967163 
	C298.505157,310.967163 310.070251,310.967163 321.821198,310.967163 
	C321.821198,297.877045 321.821198,285.443939 321.953186,272.080109 
	C321.919556,263.383240 321.885925,254.686340 321.968689,245.059921 
	C321.968689,230.038742 321.968689,215.017563 321.968689,199.922211 
	C324.624359,199.922211 326.539948,199.922211 329.141083,199.922211 
	C329.141083,206.808670 329.141083,213.395401 329.009827,220.913696 
	C329.055328,227.615509 329.100861,234.317337 329.032684,241.947891 
	C329.020477,255.417282 328.932648,268.887390 329.058502,282.355499 
	C329.084412,285.126648 329.494629,288.043243 330.449341,290.626038 
	C332.516418,296.218170 338.055267,298.891449 344.696472,298.011139 
	C350.085846,297.296753 354.723633,293.070801 354.904999,287.425476 
	C355.304626,274.986847 355.143494,262.530182 355.487793,249.188812 
	C355.389191,246.118683 355.290588,243.048553 355.440674,239.104462 
	C355.352356,235.087006 355.264008,231.069534 355.455109,226.460205 
M293.857727,199.558121 
	C292.871765,193.066971 294.914246,188.908844 301.040192,185.174011 
	C313.499939,177.577637 316.790924,160.295120 309.436432,147.648865 
	C307.698608,144.660629 305.523529,143.232132 301.829376,143.306778 
	C290.183044,143.542145 278.525055,143.563431 266.880127,143.295837 
	C263.095367,143.208878 261.180847,144.760437 259.532928,147.824142 
	C251.418655,162.909622 255.884613,178.896149 271.128448,187.423615 
	C274.301392,189.198563 275.173767,191.087540 275.053070,194.403244 
	C274.835205,200.387253 274.914062,206.386276 275.014832,212.376556 
	C275.120544,218.660782 278.488617,222.195450 284.342316,222.414978 
	C289.861359,222.621948 293.549377,218.874664 293.818176,212.517975 
	C293.986755,208.530350 293.854736,204.530014 293.857727,199.558121 
M278.026154,404.500000 
	C278.026154,390.451263 278.026154,376.402527 278.026154,362.406067 
	C272.554535,362.406067 267.977417,362.406067 263.235291,362.406067 
	C263.235291,387.758636 263.235291,412.767303 263.235291,437.756073 
	C268.298584,437.756073 273.015747,437.756073 278.026154,437.756073 
	C278.026154,426.752350 278.026154,416.126160 278.026154,404.500000 
M289.477661,272.505524 
	C288.831573,269.124573 286.420624,267.455048 283.455231,268.345367 
	C281.757080,268.855225 279.586487,271.433777 279.617462,273.042603 
	C279.648865,274.671356 281.872314,277.164337 283.597961,277.656067 
	C286.720245,278.545654 288.898499,276.630524 289.477661,272.505524 
z"/>
<path fill="#72D3AD" opacity="1.000000" stroke="none" 
	d="
M309.476410,83.913185 
	C310.797821,86.129616 311.924622,88.132332 312.881866,90.213036 
	C318.557373,102.549454 315.611786,117.315338 305.729279,126.273666 
	C295.692047,135.372253 280.621979,137.136124 269.105438,130.560242 
	C257.157135,123.737808 250.589706,109.756920 253.569092,96.635628 
	C254.425964,92.861900 256.389893,89.339546 257.981384,85.370773 
	C259.269806,83.675179 260.222717,82.009315 261.651581,81.059319 
	C262.509277,80.489067 264.628418,80.504646 265.299652,81.159691 
	C277.838287,93.395531 290.104980,93.648651 302.814972,81.766541 
	C303.414703,81.205856 304.024017,80.655396 306.341248,78.457085 
	C307.295319,80.216560 308.249390,81.976036 309.476410,83.913185 
z"/>
<path fill="#FCFCFC" opacity="1.000000" stroke="none" 
	d="
M121.532654,361.901672 
	C128.765991,361.886108 135.537292,362.045898 142.304825,361.946869 
	C145.068405,361.906464 146.199066,362.780182 146.045837,365.628479 
	C145.859741,369.088257 145.994202,372.565216 145.940552,376.496307 
	C136.097351,376.957855 126.303566,376.957855 116.178207,376.957855 
	C116.178207,382.241089 116.178207,386.975250 116.178207,392.469604 
	C122.616348,392.469604 129.145493,392.469604 135.824066,392.469604 
	C135.824066,397.847260 135.824066,402.469696 135.824066,408.348114 
	C129.114365,408.348114 122.562927,408.348114 115.833694,408.703003 
	C110.538254,403.288300 105.910622,405.592529 101.093597,409.944336 
	C100.781250,394.250977 100.781250,378.535980 100.781250,361.972900 
	C107.635986,361.972900 114.352539,361.972900 121.532654,361.901672 
z"/>
<path fill="#72D2AD" opacity="1.000000" stroke="none" 
	d="
M266.614624,59.004845 
	C273.795532,47.225273 283.897186,44.146759 294.599304,50.284286 
	C300.723755,53.796574 304.501984,63.053234 302.913055,70.652847 
	C301.481140,77.501617 293.856262,84.161926 287.016205,85.055176 
	C273.719116,86.791672 266.429413,77.506088 265.118530,66.983322 
	C264.809814,64.505119 265.893921,61.853405 266.614624,59.004845 
M279.153046,64.843681 
	C280.349121,66.932480 281.116241,69.637871 282.901459,70.879868 
	C283.980164,71.630333 287.309662,70.695229 288.400208,69.445892 
	C289.504333,68.180969 289.849182,65.300705 289.201324,63.647243 
	C287.601685,59.564602 282.818298,59.918186 279.153046,64.843681 
z"/>
<path fill="#2D2D38" opacity="1.000000" stroke="none" 
	d="
M466.046143,152.769196 
	C461.962891,157.880936 458.008759,162.651413 453.854279,167.240524 
	C453.372559,167.772644 451.351379,167.717468 450.820526,167.174820 
	C450.275726,166.617966 450.377563,165.006668 450.747772,164.076187 
	C451.290100,162.712921 452.337524,161.554016 453.145142,160.292297 
	C458.938446,151.241623 455.077515,140.543167 444.594666,137.918854 
	C441.695007,137.192947 438.255920,138.836609 435.040741,139.075241 
	C433.140472,139.216309 431.194000,138.734421 429.268311,138.532684 
	C430.415222,136.906647 431.229950,134.774094 432.777618,133.759094 
	C436.089142,131.587372 439.590851,129.199860 443.348969,128.305939 
	C456.770233,125.113487 469.517578,138.815399 466.046143,152.769196 
z"/>
<path fill="#31323D" opacity="1.000000" stroke="none" 
	d="
M332.826111,432.528381 
	C334.777710,432.768951 336.899658,433.620758 338.648468,433.133514 
	C343.552795,431.766937 348.303192,429.847870 353.744080,428.293610 
	C361.297943,437.192291 370.628357,439.338715 381.033844,437.628967 
	C393.015259,435.660248 403.093445,424.080688 403.078278,413.321075 
	C403.068237,406.214905 403.711304,399.107819 404.061951,392.001160 
	C406.522797,390.698669 408.983643,389.396179 411.803131,388.044769 
	C412.252228,400.361816 412.342712,412.727753 412.296661,425.544983 
	C408.599274,428.231445 405.048065,430.482178 401.475433,432.698395 
	C395.200012,436.591339 389.099731,440.820435 382.581726,444.255249 
	C374.022949,448.765594 365.130798,452.643188 355.832764,456.670593 
	C350.284973,448.932831 342.867767,453.033264 335.978882,451.957245 
	C335.978882,454.433258 335.999817,456.233002 335.973297,458.032043 
	C335.943970,460.022400 335.871216,462.012115 335.817352,464.002106 
	C331.523987,464.995758 327.242950,466.047516 322.932251,466.959198 
	C320.688782,467.433655 318.403473,467.800140 316.118774,467.972229 
	C310.669312,468.382629 305.208954,468.648560 299.031250,468.815491 
	C295.958923,463.955322 293.733246,459.182739 291.171509,454.597931 
	C290.515289,453.423553 288.844757,452.280090 287.551514,452.170624 
	C286.555603,452.086365 285.012878,453.421448 284.417328,454.510406 
	C281.651306,459.567932 279.130615,464.759583 276.522095,469.903229 
	C274.573273,469.269348 272.641571,468.159698 270.672485,468.088806 
	C264.194702,467.855682 257.703308,467.996307 251.217163,467.998688 
	C246.644028,468.000397 242.782135,466.456726 239.843597,462.132080 
	C240.593414,458.508087 241.380875,455.561493 242.256271,452.285889 
	C238.506332,451.760712 236.152679,451.741821 235.861053,456.002747 
	C235.709015,458.224396 234.361420,460.364227 233.103180,463.755707 
	C232.144180,460.241821 231.546234,457.917969 230.872482,455.616302 
	C230.055237,452.824371 228.835770,450.663300 225.596146,452.440674 
	C224.485931,456.057831 223.433075,459.488129 222.003082,464.147217 
	C220.502380,459.208527 219.426804,455.668823 218.298447,451.955444 
	C216.605942,452.068878 215.178101,452.164612 213.604340,452.270081 
	C213.811279,453.735077 213.970856,454.864807 214.130432,455.994507 
	C211.483780,455.104034 208.831573,454.229584 206.193176,453.315277 
	C205.120590,452.943573 204.038071,452.050140 203.028900,452.142883 
	C199.078262,452.506073 196.258301,450.710358 193.323029,448.335846 
	C190.900894,446.376373 187.648605,445.474762 185.058350,443.679871 
	C183.436646,442.556091 182.359756,440.646118 181.477753,438.643372 
	C188.500458,438.197845 195.083832,438.197845 202.002350,438.197845 
	C202.002350,434.059967 201.796066,430.740601 202.058685,427.458771 
	C202.337646,423.972656 201.141556,422.821808 197.587646,422.919861 
	C188.978363,423.157410 180.358078,422.997070 171.219742,422.997070 
	C171.219742,415.315643 171.219742,408.178070 171.367737,400.661377 
	C171.424286,396.465210 171.332840,392.648132 171.392517,388.815674 
	C171.543640,388.800293 171.826233,388.911865 171.826233,388.911865 
	C173.894531,389.446838 176.096664,389.690582 178.007294,390.568604 
	C185.227982,393.887085 185.368973,395.006012 179.965729,400.821442 
	C177.993423,402.944122 177.309830,405.103119 180.379868,406.955048 
	C189.731094,412.596008 199.078964,418.242493 208.920746,424.390869 
	C209.413361,429.161041 209.413361,433.427216 209.413361,437.892365 
	C224.962357,437.892365 239.961716,437.892365 254.961060,437.892395 
	C261.656921,439.254730 268.315460,441.485809 275.057373,441.775208 
	C285.084381,442.205658 295.173889,441.335175 305.227295,440.829254 
	C306.747253,440.752747 308.215759,439.653870 310.310791,438.618469 
	C318.859436,438.790924 326.314972,437.481171 332.826111,432.528381 
z"/>
<path fill="#FFFFFF" opacity="1.000000" stroke="none" 
	d="
M171.219742,401.040466 
	C171.219742,408.178070 171.219742,415.315643 171.219742,422.997070 
	C180.358078,422.997070 188.978363,423.157410 197.587646,422.919861 
	C201.141556,422.821808 202.337646,423.972656 202.058685,427.458771 
	C201.796066,430.740601 202.002350,434.059967 202.002350,438.197845 
	C195.083832,438.197845 188.500458,438.197845 181.457367,438.295319 
	C174.216507,438.318054 167.430817,438.067200 160.656113,438.242310 
	C157.232605,438.330811 155.994812,437.352844 156.093353,433.795349 
	C156.331650,425.192871 156.193954,416.579926 156.615875,407.443970 
	C158.727402,405.710907 160.639740,404.712646 162.089127,403.254303 
	C164.756897,400.569946 167.580704,399.337524 171.219742,401.040466 
z"/>
<path fill="#70CCA9" opacity="1.000000" stroke="none" 
	d="
M214.319992,456.311340 
	C213.970856,454.864807 213.811279,453.735077 213.604340,452.270081 
	C215.178101,452.164612 216.605942,452.068878 218.298447,451.955444 
	C219.426804,455.668823 220.502380,459.208527 222.003082,464.147217 
	C223.433075,459.488129 224.485931,456.057831 225.596146,452.440674 
	C228.835770,450.663300 230.055237,452.824371 230.872482,455.616302 
	C231.546234,457.917969 232.144180,460.241821 233.103180,463.755707 
	C234.361420,460.364227 235.709015,458.224396 235.861053,456.002747 
	C236.152679,451.741821 238.506332,451.760712 242.256271,452.285889 
	C241.380875,455.561493 240.593414,458.508087 239.653778,461.768707 
	C238.687653,464.754578 238.120316,467.540588 236.957794,470.051025 
	C236.358704,471.344696 234.645401,473.012421 233.535706,472.941650 
	C232.303024,472.863037 230.857742,471.183899 230.099609,469.860870 
	C229.174622,468.246704 228.868591,466.277863 227.879150,463.146973 
	C226.956879,466.079376 226.755722,467.771606 225.931427,469.067505 
	C224.949203,470.611755 223.432571,471.816071 222.147446,473.167633 
	C220.859848,471.774475 219.042068,470.591461 218.390015,468.946411 
	C216.807831,464.954773 215.767929,460.748138 214.319992,456.311340 
z"/>
<path fill="#FEFEFE" opacity="1.000000" stroke="none" 
	d="
M171.195190,370.050720 
	C171.316193,376.064178 171.437195,382.077637 171.692215,388.501465 
	C171.826233,388.911865 171.543640,388.800293 171.058945,388.834045 
	C165.839752,387.228455 161.105255,385.589142 156.370758,383.949829 
	C156.289383,383.208588 156.208008,382.467377 156.033386,381.363861 
	C156.015396,376.509827 156.394745,371.996552 156.079086,367.532440 
	C155.772583,363.197388 157.067459,361.226868 161.590530,361.970398 
	C162.727020,362.157227 163.918701,362.008362 165.614502,362.418396 
	C167.827744,365.232269 169.511475,367.641479 171.195190,370.050720 
z"/>
<path fill="#70CCA9" opacity="1.000000" stroke="none" 
	d="
M396.079163,451.977661 
	C398.217194,451.980774 399.884277,451.920349 401.544891,451.998047 
	C408.566315,452.326294 412.041290,455.848053 412.016632,462.551819 
	C411.990143,469.764008 409.164886,472.725769 401.731415,473.082184 
	C398.426331,473.240662 395.107330,473.109009 391.387512,473.109009 
	C391.387512,466.126892 391.387512,459.413696 391.387512,452.290619 
	C392.738556,452.190399 394.171875,452.084076 396.079163,451.977661 
M399.373779,456.651184 
	C398.567963,457.262299 397.113068,457.827271 397.065796,458.492371 
	C396.827545,461.842651 396.956390,465.219025 396.956390,468.519470 
	C404.278046,468.969879 406.588776,467.629669 406.861389,463.190704 
	C407.145844,458.559387 404.687866,456.601532 399.373779,456.651184 
z"/>
<path fill="#70CCA9" opacity="1.000000" stroke="none" 
	d="
M335.877991,464.447754 
	C335.871216,462.012115 335.943970,460.022400 335.973297,458.032043 
	C335.999817,456.233002 335.978882,454.433258 335.978882,451.957245 
	C342.867767,453.033264 350.284973,448.932831 355.494232,456.812286 
	C355.121185,459.359283 354.537384,461.642273 353.754852,464.702393 
	C354.732513,466.632507 356.210785,469.550873 357.689056,472.469269 
	C357.284851,472.942505 356.880646,473.415771 356.476410,473.889008 
	C354.655029,472.630066 352.298218,471.742157 351.117859,470.038971 
	C348.186890,465.809784 347.918518,465.426239 342.245148,466.105743 
	C342.159393,467.824982 342.410034,469.726776 341.860809,471.359497 
	C341.498993,472.435120 339.982849,473.798584 338.988159,473.794952 
	C337.994965,473.791260 336.387451,472.386932 336.148773,471.344849 
	C335.677277,469.286346 335.964874,467.053925 335.877991,464.447754 
M349.972931,460.116180 
	C351.040924,454.907959 346.927155,456.555206 344.749969,456.613007 
	C343.652557,456.642120 342.608521,458.681580 341.540314,459.811951 
	C341.913391,460.281464 342.286469,460.750977 342.659546,461.220459 
	C344.916229,461.045746 347.172882,460.871002 349.972931,460.116180 
z"/>
<path fill="#70CCA9" opacity="1.000000" stroke="none" 
	d="
M169.308685,472.897308 
	C165.090286,472.951172 161.304504,472.951172 157.172333,472.951172 
	C157.172333,465.992279 157.172333,459.286835 157.172333,451.981354 
	C160.265793,451.981354 163.212204,451.910126 166.154022,451.996094 
	C172.457565,452.180237 176.006149,454.730316 176.892258,459.595154 
	C178.174042,466.632172 176.234589,470.225311 169.308685,472.897308 
M161.874496,466.125244 
	C162.897293,467.020508 164.205399,468.849945 164.890823,468.640625 
	C167.193466,467.937347 170.153366,467.009125 171.180984,465.208038 
	C172.120697,463.561005 171.717133,459.678406 170.398148,458.562195 
	C168.502930,456.958344 165.240723,456.969788 161.864822,456.115234 
	C161.864822,459.998199 161.864822,462.607178 161.874496,466.125244 
z"/>
<path fill="#70CCA9" opacity="1.000000" stroke="none" 
	d="
M276.376617,470.181702 
	C279.130615,464.759583 281.651306,459.567932 284.417328,454.510406 
	C285.012878,453.421448 286.555603,452.086365 287.551514,452.170624 
	C288.844757,452.280090 290.515289,453.423553 291.171509,454.597931 
	C293.733246,459.182739 295.958923,463.955322 298.603943,468.842590 
	C299.287750,470.405396 299.677155,471.783661 300.138916,473.418091 
	C297.432220,474.310913 295.595093,474.717957 294.095673,471.502838 
	C291.900696,466.796265 284.889160,466.752716 281.961456,471.037445 
	C281.178680,472.183105 280.038361,473.550171 278.827087,473.842926 
	C276.080353,474.506836 274.697906,473.432220 276.376617,470.181702 
z"/>
<path fill="#E5E5E6" opacity="1.000000" stroke="none" 
	d="
M156.260544,384.410095 
	C161.105255,385.589142 165.839752,387.228455 170.907806,388.849426 
	C171.332840,392.648132 171.424286,396.465210 171.367737,400.661377 
	C167.580704,399.337524 164.756897,400.569946 162.089127,403.254303 
	C160.639740,404.712646 158.727402,405.710907 156.699615,406.985535 
	C156.300323,399.659729 156.225327,392.265076 156.260544,384.410095 
z"/>
<path fill="#FCFCFC" opacity="1.000000" stroke="none" 
	d="
M135.457336,438.067657 
	C133.535782,435.029694 132.150894,432.026978 130.575317,429.127930 
	C129.569153,427.276611 128.280869,425.578552 127.066879,423.475128 
	C133.102432,423.138458 139.190201,423.138458 145.640747,423.138458 
	C145.640747,428.041077 145.640747,432.724792 145.640747,438.146820 
	C142.384766,438.146820 139.148987,438.146820 135.457336,438.067657 
z"/>
<path fill="#30303C" opacity="1.000000" stroke="none" 
	d="
M428.400543,417.937500 
	C428.059113,410.425873 428.059113,402.851837 428.059113,395.277771 
	C428.333862,395.141571 428.608582,395.005341 428.883331,394.869141 
	C431.410614,399.969971 433.937897,405.070770 436.461304,410.492371 
	C433.885590,413.167114 431.313782,415.521088 428.400543,417.937500 
z"/>
<path fill="#72D2AD" opacity="1.000000" stroke="none" 
	d="
M321.821198,273.010803 
	C321.821198,285.443939 321.821198,297.877045 321.821198,310.967163 
	C310.070251,310.967163 298.505157,310.967163 286.535461,310.563782 
	C285.951233,308.483063 286.384399,306.312714 285.494629,305.206757 
	C278.646820,296.695007 271.503876,288.421570 264.538757,280.002808 
	C262.152740,277.118805 259.958923,276.768921 257.052856,279.385254 
	C254.263000,281.896942 253.216904,284.287323 255.975296,287.408539 
	C258.278320,290.014496 260.606079,292.604950 262.782684,295.314880 
	C266.904541,300.446686 270.925842,305.659241 274.988922,310.838257 
	C265.867859,310.838257 256.746796,310.838257 247.064484,310.838257 
	C247.064484,273.763519 247.064484,237.032288 247.064484,199.961365 
	C244.593262,199.961365 242.676453,199.961365 239.853668,199.961365 
	C239.853668,201.866821 239.853683,203.776016 239.853668,205.685211 
	C239.853378,231.344818 239.890747,257.004517 239.832733,282.664001 
	C239.811920,291.875793 235.591080,297.307648 228.193283,298.051971 
	C220.695068,298.806396 214.733719,294.372040 213.557587,286.960754 
	C213.168610,284.509613 213.164474,281.980774 213.162491,279.487335 
	C213.138031,248.662491 213.117035,217.837585 213.159988,187.012802 
	C213.179260,173.184479 217.546326,161.183990 228.661560,152.341415 
	C235.602219,146.819839 243.469543,143.665863 253.042557,143.923111 
	C252.068314,146.597977 251.159927,148.844452 250.426163,151.146591 
	C245.440598,166.788803 251.438721,183.191086 265.105530,192.172440 
	C266.555237,193.125122 267.740662,195.462936 267.874939,197.246521 
	C268.249207,202.217010 268.014557,207.234009 268.004547,212.232620 
	C267.989349,219.808990 271.385864,225.174942 278.141266,228.666275 
	C279.386688,229.309967 280.694519,231.226517 280.731079,232.588867 
	C280.963165,241.246872 280.920837,249.915588 280.760834,258.576935 
	C280.738129,259.805298 279.889221,261.412048 278.904022,262.164612 
	C272.859314,266.782074 270.955261,270.899414 272.658356,276.429230 
	C274.460144,282.279297 278.653748,284.976227 286.634552,285.451172 
	C290.690308,290.201416 294.253662,294.601166 297.871307,299.067963 
	C300.358032,297.200378 302.438995,296.039001 303.929749,294.355103 
	C304.721130,293.461151 305.190338,291.079651 304.600342,290.367279 
	C301.579010,286.719177 298.165710,283.395752 294.889404,279.958832 
	C295.511078,277.231659 296.132751,274.504486 297.229431,271.405762 
	C305.743347,271.693115 313.782257,272.351959 321.821198,273.010803 
z"/>
<path fill="#72D2AD" opacity="1.000000" stroke="none" 
	d="
M290.816589,262.401733 
	C289.878632,261.076996 288.160400,259.771210 288.127747,258.424561 
	C287.893768,248.779373 288.002716,239.125885 288.002716,229.413391 
	C297.681244,226.250824 301.494965,219.460449 300.845825,209.809738 
	C300.790070,208.980667 300.881683,208.141983 300.831421,207.312195 
	C300.366028,199.626068 301.095337,193.571091 308.501160,187.778992 
	C321.002838,178.001404 323.080261,163.882477 317.887543,148.891357 
	C317.356903,147.359390 316.803101,145.835449 316.241608,144.255875 
	C330.362610,142.773071 347.335266,154.526917 352.599152,169.075195 
	C356.154388,178.901016 355.519928,189.058212 354.900635,199.641907 
	C350.693298,202.165695 346.556671,203.762650 343.300812,206.433350 
	C338.264832,210.564270 333.830536,215.428741 329.141083,219.982132 
	C329.141083,213.395401 329.141083,206.808670 329.141083,199.922211 
	C326.539948,199.922211 324.624359,199.922211 321.968689,199.922211 
	C321.968689,215.017563 321.968689,230.038742 321.581299,245.463211 
	C319.076324,243.823242 316.686432,241.990021 314.908203,239.684937 
	C312.544647,236.621063 310.357788,235.003189 306.708984,237.837570 
	C303.541443,240.298065 302.454132,242.669693 305.833588,245.778259 
	C306.918213,246.775955 307.749512,248.049194 308.695526,249.197357 
	C312.103058,253.333084 315.510040,257.469238 318.917236,261.605225 
	C318.675049,262.152069 318.432861,262.698944 318.190674,263.245819 
	C311.396942,262.645050 304.610840,261.914734 297.805328,261.515503 
	C295.500977,261.380341 293.147583,262.082306 290.816589,262.401733 
z"/>
<path fill="#72D1AC" opacity="1.000000" stroke="none" 
	d="
M293.857666,200.046753 
	C293.854736,204.530014 293.986755,208.530350 293.818176,212.517975 
	C293.549377,218.874664 289.861359,222.621948 284.342316,222.414978 
	C278.488617,222.195450 275.120544,218.660782 275.014832,212.376556 
	C274.914062,206.386276 274.835205,200.387253 275.053070,194.403244 
	C275.173767,191.087540 274.301392,189.198563 271.128448,187.423615 
	C255.884613,178.896149 251.418655,162.909622 259.532928,147.824142 
	C261.180847,144.760437 263.095367,143.208878 266.880127,143.295837 
	C278.525055,143.563431 290.183044,143.542145 301.829376,143.306778 
	C305.523529,143.232132 307.698608,144.660629 309.436432,147.648865 
	C316.790924,160.295120 313.499939,177.577637 301.040192,185.174011 
	C294.914246,188.908844 292.871765,193.066971 293.857666,200.046753 
z"/>
<path fill="#FCFCFC" opacity="1.000000" stroke="none" 
	d="
M403.961823,391.593140 
	C403.711304,399.107819 403.068237,406.214905 403.078278,413.321075 
	C403.093445,424.080688 393.015259,435.660248 381.033844,437.628967 
	C370.628357,439.338715 361.297943,437.192291 354.101959,428.224243 
	C344.812439,412.903046 346.323792,396.632477 349.906494,380.731873 
	C352.561523,368.948303 365.479156,361.225494 377.358093,362.157806 
	C390.520386,363.190826 401.064117,372.634064 403.105194,385.251770 
	C403.423401,387.218872 403.612701,389.206818 403.961823,391.593140 
M362.999390,400.499298 
	C363.057465,404.327637 362.807098,408.191528 363.243073,411.976349 
	C363.968109,418.270538 369.881042,423.180634 375.956757,422.990967 
	C382.665405,422.781494 387.747437,418.295654 388.096130,411.529907 
	C388.480865,404.064331 388.688019,396.541840 388.209808,389.093109 
	C387.740265,381.778870 382.038879,377.109802 375.260925,377.467163 
	C368.212097,377.838776 363.408569,382.696930 363.033386,390.018921 
	C362.871613,393.175415 363.001862,396.346863 362.999390,400.499298 
z"/>
<path fill="#FCFCFC" opacity="1.000000" stroke="none" 
	d="
M332.968445,432.237061 
	C326.314972,437.481171 318.859436,438.790924 310.458191,438.301147 
	C305.177094,438.318695 300.350281,438.154663 295.525787,438.205994 
	C292.998077,438.232880 292.088776,437.333374 291.934326,434.728546 
	C291.238220,422.987762 291.157837,422.992920 302.641968,422.992615 
	C307.307892,422.992462 311.977417,423.103760 316.638794,422.957336 
	C321.403015,422.807617 324.933228,419.464111 324.948029,415.389069 
	C324.963287,411.186829 321.606201,408.130188 316.659485,407.851135 
	C313.012268,407.645416 309.281830,407.869049 305.732269,407.170715 
	C294.230225,404.907745 286.718048,395.500122 286.996857,384.205933 
	C287.268494,373.203003 295.645386,363.733582 307.201569,362.568451 
	C315.454865,361.736359 323.834106,362.039154 332.154022,362.127838 
	C333.169983,362.138672 334.933319,363.892487 335.033844,364.962250 
	C335.389130,368.743195 335.172180,372.577911 335.172180,377.179199 
	C328.287231,377.179199 321.696075,377.122650 315.106750,377.208313 
	C312.627777,377.240479 310.079285,377.300537 307.693481,377.883820 
	C303.990143,378.789154 302.137848,381.670715 302.293457,385.297699 
	C302.449066,388.925018 304.462372,391.627197 308.347351,392.095856 
	C311.639252,392.492950 314.974731,392.530945 318.291412,392.719849 
	C327.634949,393.251984 334.538818,397.868286 338.167725,406.267090 
	C341.948242,415.016754 340.697662,423.492157 334.047485,430.776917 
	C333.711517,431.144867 333.421967,431.555176 332.968445,432.237061 
z"/>
<path fill="#FBFBFB" opacity="1.000000" stroke="none" 
	d="
M255.019135,437.434998 
	C239.961716,437.892365 224.962357,437.892365 209.413361,437.892365 
	C209.413361,433.427216 209.413361,429.161041 209.283691,424.445618 
	C209.280701,405.849243 209.345703,387.701202 209.606583,369.556000 
	C209.642044,367.089966 210.290421,362.707733 211.284088,362.518646 
	C215.270187,361.760162 219.521652,362.134094 223.625046,362.565125 
	C224.177658,362.623199 224.786850,365.389984 224.793396,366.904968 
	C224.873291,385.386353 224.845337,403.868195 224.845337,422.813782 
	C234.780746,422.813782 244.530609,422.813782 255.077194,422.813782 
	C255.077194,427.822113 255.077194,432.399902 255.019135,437.434998 
z"/>
<path fill="#72D2AD" opacity="1.000000" stroke="none" 
	d="
M355.211182,250.080872 
	C355.143494,262.530182 355.304626,274.986847 354.904999,287.425476 
	C354.723633,293.070801 350.085846,297.296753 344.696472,298.011139 
	C338.055267,298.891449 332.516418,296.218170 330.449341,290.626038 
	C329.494629,288.043243 329.084412,285.126648 329.058502,282.355499 
	C328.932648,268.887390 329.020477,255.417282 329.404053,241.566742 
	C334.901520,246.897217 340.187988,252.283768 348.916656,250.938904 
	C351.009216,250.616486 353.112701,250.364975 355.211182,250.080872 
z"/>
<path fill="#FFFFFF" opacity="1.000000" stroke="none" 
	d="
M278.026154,405.000000 
	C278.026154,416.126160 278.026154,426.752350 278.026154,437.756073 
	C273.015747,437.756073 268.298584,437.756073 263.235291,437.756073 
	C263.235291,412.767303 263.235291,387.758636 263.235291,362.406067 
	C267.977417,362.406067 272.554535,362.406067 278.026154,362.406067 
	C278.026154,376.402527 278.026154,390.451263 278.026154,405.000000 
z"/>
<path fill="#6CC6A3" opacity="1.000000" stroke="none" 
	d="
M355.349487,249.634842 
	C353.112701,250.364975 351.009216,250.616486 348.916656,250.938904 
	C340.187988,252.283768 334.901520,246.897217 329.460938,241.102356 
	C329.100861,234.317337 329.055328,227.615509 329.075439,220.447906 
	C333.830536,215.428741 338.264832,210.564270 343.300812,206.433350 
	C346.556671,203.762650 350.693298,202.165695 354.803162,200.028885 
	C355.267700,203.057159 355.364319,206.144104 354.946716,209.615875 
	C351.232056,211.933502 347.519989,213.347488 344.930847,215.900345 
	C338.243225,222.494293 334.374908,231.222702 342.559845,238.172043 
	C346.585968,241.590393 350.779022,240.835068 355.191986,239.978424 
	C355.290588,243.048553 355.389191,246.118683 355.349487,249.634842 
z"/>
<path fill="#6ECCA7" opacity="1.000000" stroke="none" 
	d="
M291.044281,262.630798 
	C293.147583,262.082306 295.500977,261.380341 297.805328,261.515503 
	C304.610840,261.914734 311.396942,262.645050 318.190674,263.245819 
	C318.432861,262.698944 318.675049,262.152069 318.917236,261.605225 
	C315.510040,257.469238 312.103058,253.333084 308.695526,249.197357 
	C307.749512,248.049194 306.918213,246.775955 305.833588,245.778259 
	C302.454132,242.669693 303.541443,240.298065 306.708984,237.837570 
	C310.357788,235.003189 312.544647,236.621063 314.908203,239.684937 
	C316.686432,241.990021 319.076324,243.823242 321.523132,245.927979 
	C321.885925,254.686340 321.919556,263.383240 321.887207,272.545471 
	C313.782257,272.351959 305.743347,271.693115 297.272858,271.012756 
	C294.984863,268.280823 293.128418,265.570374 291.044281,262.630798 
z"/>
<path fill="#6ECCA7" opacity="1.000000" stroke="none" 
	d="
M275.444458,310.899933 
	C270.925842,305.659241 266.904541,300.446686 262.782684,295.314880 
	C260.606079,292.604950 258.278320,290.014496 255.975296,287.408539 
	C253.216904,284.287323 254.263000,281.896942 257.052856,279.385254 
	C259.958923,276.768921 262.152740,277.118805 264.538757,280.002808 
	C271.503876,288.421570 278.646820,296.695007 285.494629,305.206757 
	C286.384399,306.312714 285.951233,308.483063 286.070831,310.504639 
	C282.640533,310.886475 279.270294,310.924042 275.444458,310.899933 
z"/>
<path fill="#72D3AD" opacity="1.000000" stroke="none" 
	d="
M355.316345,239.541443 
	C350.779022,240.835068 346.585968,241.590393 342.559845,238.172043 
	C334.374908,231.222702 338.243225,222.494293 344.930847,215.900345 
	C347.519989,213.347488 351.232056,211.933502 354.819489,209.983795 
	C355.249420,213.665558 355.292389,217.364227 354.919373,221.571884 
	C349.966003,224.381943 353.436584,225.599915 355.175720,227.052078 
	C355.264008,231.069534 355.352356,235.087006 355.316345,239.541443 
z"/>
<path fill="#6ECCA7" opacity="1.000000" stroke="none" 
	d="
M294.617981,280.146179 
	C298.165710,283.395752 301.579010,286.719177 304.600342,290.367279 
	C305.190338,291.079651 304.721130,293.461151 303.929749,294.355103 
	C302.438995,296.039001 300.358032,297.200378 297.871307,299.067963 
	C294.253662,294.601166 290.690308,290.201416 287.060486,285.470947 
	C289.444824,283.537994 291.895691,281.935791 294.617981,280.146179 
z"/>
<path fill="#6CC6A3" opacity="1.000000" stroke="none" 
	d="
M289.394348,272.855743 
	C288.898499,276.630524 286.720245,278.545654 283.597961,277.656067 
	C281.872314,277.164337 279.648865,274.671356 279.617462,273.042603 
	C279.586487,271.433777 281.757080,268.855225 283.455231,268.345367 
	C286.420624,267.455048 288.831573,269.124573 289.394348,272.855743 
z"/>
<path fill="#E5E5E6" opacity="1.000000" stroke="none" 
	d="
M171.346863,369.704163 
	C169.511475,367.641479 167.827744,365.232269 166.061340,362.480408 
	C171.674255,361.917877 171.674255,361.917877 171.346863,369.704163 
z"/>
<path fill="#6CC6A3" opacity="1.000000" stroke="none" 
	d="
M355.315430,226.756134 
	C353.436584,225.599915 349.966003,224.381943 354.838074,222.025314 
	C355.266907,223.466568 355.360992,224.963394 355.315430,226.756134 
z"/>
<path fill="#373742" opacity="1.000000" stroke="none" 
	d="
M279.300415,64.475098 
	C282.818298,59.918186 287.601685,59.564602 289.201324,63.647243 
	C289.849182,65.300705 289.504333,68.180969 288.400208,69.445892 
	C287.309662,70.695229 283.980164,71.630333 282.901459,70.879868 
	C281.116241,69.637871 280.349121,66.932480 279.300415,64.475098 
z"/>
<path fill="#31323D" opacity="1.000000" stroke="none" 
	d="
M399.829041,456.642090 
	C404.687866,456.601532 407.145844,458.559387 406.861389,463.190704 
	C406.588776,467.629669 404.278046,468.969879 396.956390,468.519470 
	C396.956390,465.219025 396.827545,461.842651 397.065796,458.492371 
	C397.113068,457.827271 398.567963,457.262299 399.829041,456.642090 
z"/>
<path fill="#373742" opacity="1.000000" stroke="none" 
	d="
M349.701233,460.406219 
	C347.172882,460.871002 344.916229,461.045746 342.659546,461.220459 
	C342.286469,460.750977 341.913391,460.281464 341.540314,459.811951 
	C342.608521,458.681580 343.652557,456.642120 344.749969,456.613007 
	C346.927155,456.555206 351.040924,454.907959 349.701233,460.406219 
z"/>
<path fill="#31323D" opacity="1.000000" stroke="none" 
	d="
M161.869659,465.670715 
	C161.864822,462.607178 161.864822,459.998199 161.864822,456.115234 
	C165.240723,456.969788 168.502930,456.958344 170.398148,458.562195 
	C171.717133,459.678406 172.120697,463.561005 171.180984,465.208038 
	C170.153366,467.009125 167.193466,467.937347 164.890823,468.640625 
	C164.205399,468.849945 162.897293,467.020508 161.869659,465.670715 
z"/>
<path fill="#373742" opacity="1.000000" stroke="none" 
	d="
M362.999451,400.005432 
	C363.001862,396.346863 362.871613,393.175415 363.033386,390.018921 
	C363.408569,382.696930 368.212097,377.838776 375.260925,377.467163 
	C382.038879,377.109802 387.740265,381.778870 388.209808,389.093109 
	C388.688019,396.541840 388.480865,404.064331 388.096130,411.529907 
	C387.747437,418.295654 382.665405,422.781494 375.956757,422.990967 
	C369.881042,423.180634 363.968109,418.270538 363.243073,411.976349 
	C362.807098,408.191528 363.057465,404.327637 362.999451,400.005432 
z"/>
</svg>